# xmcd
#
# Track frame offsets:
#	150
#	15825
#	28500
#	39838
#	53188
#	66238
#	80113
#	97068
#	109818
#	128428
#	141708
#	157436
#
# Disc length: 2292 seconds
#
# Revision: 1
# Processed by: cddbd v1.5.2PL0 Copyright (c) Steve Scherf et al.
# Submitted via: audiograbber 1.83.01
#
DISCID=a408f20c
DTITLE=RC - R.C. Country Vol.6
DYEAR=1900
DGENRE=
TTITLE0=Jerry Reed - She Got The Goldmine I got the Shaft
TTITLE1=George Jones - She THinks I still Care
TTITLE2=Alan Jackson - She's Got the Rhythym and I got the Blues
TTITLE3=Don Williams - Some Broken Hearts Never Mend
TTITLE4=Al Martino - Spanish Eyes
TTITLE5=Randy Travis - Spirit Of A Boy
TTITLE6=James Taylor - Steam Roller Blues
TTITLE7=Frank Sinatra - Strangers In The Night
TTITLE8=Alan Jackson - Livin on Love
TTITLE9=Merle Haggard - Swingin' Doors
TTITLE10=Leroy Parivell w - Brooks and Dunn - Take These Chains From My Heart
TTITLE11=Frank Sinatra - That's Life
EXTD=
EXTT0=
EXTT1=
EXTT2=
EXTT3=
EXTT4=
EXTT5=
EXTT6=
EXTT7=
EXTT8=
EXTT9=
EXTT10=
EXTT11=
PLAYORDER=
